<?xml version="1.0" standalone="no"?>
<svg xmlns:xlink="http://www.w3.org/1999/xlink" id="wave" style="transform:rotate(180deg); transition: 0.3s" viewBox="0 0 1440 490" version="1.1" xmlns="http://www.w3.org/2000/svg"><defs><linearGradient id="sw-gradient-0" x1="0" x2="0" y1="1" y2="0"><stop stop-color="rgba(251, 201, 142, 1)" offset="0%"/><stop stop-color="rgba(248, 151, 132, 1)" offset="100%"/></linearGradient></defs><path style="transform:translate(0, 0px); opacity:1" fill="url(#sw-gradient-0)" d="M0,441L40,375.7C80,310,160,180,240,138.8C320,98,400,147,480,138.8C560,131,640,65,720,40.8C800,16,880,33,960,106.2C1040,180,1120,310,1200,302.2C1280,294,1360,147,1440,89.8C1520,33,1600,65,1680,89.8C1760,114,1840,131,1920,187.8C2000,245,2080,343,2160,367.5C2240,392,2320,343,2400,277.7C2480,212,2560,131,2640,89.8C2720,49,2800,49,2880,40.8C2960,33,3040,16,3120,65.3C3200,114,3280,229,3360,236.8C3440,245,3520,147,3600,98C3680,49,3760,49,3840,114.3C3920,180,4000,310,4080,367.5C4160,425,4240,408,4320,343C4400,278,4480,163,4560,138.8C4640,114,4720,180,4800,204.2C4880,229,4960,212,5040,236.8C5120,261,5200,327,5280,326.7C5360,327,5440,261,5520,204.2C5600,147,5680,98,5720,73.5L5760,49L5760,490L5720,490C5680,490,5600,490,5520,490C5440,490,5360,490,5280,490C5200,490,5120,490,5040,490C4960,490,4880,490,4800,490C4720,490,4640,490,4560,490C4480,490,4400,490,4320,490C4240,490,4160,490,4080,490C4000,490,3920,490,3840,490C3760,490,3680,490,3600,490C3520,490,3440,490,3360,490C3280,490,3200,490,3120,490C3040,490,2960,490,2880,490C2800,490,2720,490,2640,490C2560,490,2480,490,2400,490C2320,490,2240,490,2160,490C2080,490,2000,490,1920,490C1840,490,1760,490,1680,490C1600,490,1520,490,1440,490C1360,490,1280,490,1200,490C1120,490,1040,490,960,490C880,490,800,490,720,490C640,490,560,490,480,490C400,490,320,490,240,490C160,490,80,490,40,490L0,490Z"/><defs><linearGradient id="sw-gradient-1" x1="0" x2="0" y1="1" y2="0"><stop stop-color="rgba(248, 158, 144, 1)" offset="0%"/><stop stop-color="rgba(246, 101, 149, 1)" offset="100%"/></linearGradient></defs><path style="transform:translate(0, 50px); opacity:0.9" fill="url(#sw-gradient-1)" d="M0,245L40,277.7C80,310,160,376,240,383.8C320,392,400,343,480,310.3C560,278,640,261,720,212.3C800,163,880,82,960,40.8C1040,0,1120,0,1200,73.5C1280,147,1360,294,1440,318.5C1520,343,1600,245,1680,171.5C1760,98,1840,49,1920,32.7C2000,16,2080,33,2160,81.7C2240,131,2320,212,2400,277.7C2480,343,2560,392,2640,343C2720,294,2800,147,2880,106.2C2960,65,3040,131,3120,187.8C3200,245,3280,294,3360,318.5C3440,343,3520,343,3600,334.8C3680,327,3760,310,3840,261.3C3920,212,4000,131,4080,81.7C4160,33,4240,16,4320,8.2C4400,0,4480,0,4560,0C4640,0,4720,0,4800,0C4880,0,4960,0,5040,49C5120,98,5200,196,5280,261.3C5360,327,5440,359,5520,326.7C5600,294,5680,196,5720,147L5760,98L5760,490L5720,490C5680,490,5600,490,5520,490C5440,490,5360,490,5280,490C5200,490,5120,490,5040,490C4960,490,4880,490,4800,490C4720,490,4640,490,4560,490C4480,490,4400,490,4320,490C4240,490,4160,490,4080,490C4000,490,3920,490,3840,490C3760,490,3680,490,3600,490C3520,490,3440,490,3360,490C3280,490,3200,490,3120,490C3040,490,2960,490,2880,490C2800,490,2720,490,2640,490C2560,490,2480,490,2400,490C2320,490,2240,490,2160,490C2080,490,2000,490,1920,490C1840,490,1760,490,1680,490C1600,490,1520,490,1440,490C1360,490,1280,490,1200,490C1120,490,1040,490,960,490C880,490,800,490,720,490C640,490,560,490,480,490C400,490,320,490,240,490C160,490,80,490,40,490L0,490Z"/></svg>